{
  "source": "C:\\Users\\Peter\\Desktop\\stuff\\MIUN\\quantitative_research\\video_compression\\videos\\UVG\\HoneyBee_1920x1080_120fps_420_8bit_YUV.y4m",
  "output": "C:\\Users\\Peter\\Desktop\\stuff\\MIUN\\quantitative_research\\video_compression\\compressed_videos\\UVG\\vp9\\8\\HoneyBee_1920x1080_120fps_420_8bit_YUV_vp9.webm",
  "codec": "vp9",
  "ok": "[yuv4mpegpipe @ 00000232765052c0] Stream #0: not enough frames to estimate rate; consider increasing probesize\nInput #0, yuv4mpegpipe, from 'C:\\Users\\Peter\\Desktop\\stuff\\MIUN\\quantitative_research\\video_compression\\videos\\UVG\\HoneyBee_1920x1080_120fps_420_8bit_YUV.y4m':\n  Duration: 00:00:05.00, start: 0.000000, bitrate: 2985989 kb/s\n  Stream #0:0: Video: rawvideo (I420 / 0x30323449), yuv420p(progressive), 1920x1080, 120 fps, 120 tbr, 120 tbn\n[out#0/webm @ 0000023276509b80] Codec AVOption b:a (set bitrate (in bits/s)) has not been used for any stream. The most likely reason is either wrong type (e.g. a video option with no video streams) or that it is a private option of some decoder which was not actually used for any stream.\nStream mapping:\n  Stream #0:0 -> #0:0 (rawvideo (native) -> vp9 (libvpx-vp9))\nPress [q] to stop, [?] for help\n[libvpx-vp9 @ 000002327650cec0] v1.15.2-100-g40561f514\nOutput #0, webm, to 'C:\\Users\\Peter\\Desktop\\stuff\\MIUN\\quantitative_research\\video_compression\\compressed_videos\\UVG\\vp9\\8\\HoneyBee_1920x1080_120fps_420_8bit_YUV_vp9.webm':\n  Metadata:\n    encoder         : Lavf62.3.100\n  Stream #0:0: Video: vp9, yuv420p(tv, progressive), 1920x1080, q=2-31, 8000 kb/s, 120 fps, 1k tbn\n    Metadata:\n      encoder         : Lavc62.11.100 libvpx-vp9\n    Side data:\n      cpb: bitrate max/min/avg: 0/0/0 buffer size: 8000000 vbv_delay: N/A\nframe=    4 fps=0.0 q=34.0 size=       0KiB time=00:00:00.03 bitrate= 115.4kbits/s speed=0.0652x elapsed=0:00:00.51    \nframe=   10 fps=9.7 q=25.0 size=       0KiB time=00:00:00.08 bitrate=  46.2kbits/s speed=0.0806x elapsed=0:00:01.03    \nframe=   14 fps=9.0 q=33.0 size=       0KiB time=00:00:00.11 bitrate=  33.0kbits/s speed=0.0749x elapsed=0:00:01.55    \nframe=   16 fps=7.7 q=11.0 size=       0KiB time=00:00:00.13 bitrate=  28.9kbits/s speed=0.0638x elapsed=0:00:02.08    \nframe=   19 fps=7.3 q=16.0 size=       0KiB time=00:00:00.15 bitrate=  24.3kbits/s speed=0.0606x elapsed=0:00:02.61    \nframe=   22 fps=7.0 q=30.0 size=       0KiB time=00:00:00.18 bitrate=  21.0kbits/s speed=0.0583x elapsed=0:00:03.14    \nframe=   26 fps=7.1 q=31.0 size=       0KiB time=00:00:00.21 bitrate=  17.8kbits/s speed=0.0589x elapsed=0:00:03.67    \nframe=   30 fps=7.1 q=28.0 size=       0KiB time=00:00:00.25 bitrate=  15.4kbits/s speed=0.0594x elapsed=0:00:04.20    \nframe=   33 fps=7.0 q=31.0 size=       0KiB time=00:00:00.27 bitrate=  14.0kbits/s speed=0.0581x elapsed=0:00:04.73    \nframe=   37 fps=7.0 q=27.0 size=       0KiB time=00:00:00.30 bitrate=  12.5kbits/s speed=0.0585x elapsed=0:00:05.26    \nframe=   39 fps=6.7 q=30.0 size=       0KiB time=00:00:00.32 bitrate=  11.8kbits/s speed=0.056x elapsed=0:00:05.80    \nframe=   43 fps=6.8 q=30.0 size=       0KiB time=00:00:00.35 bitrate=  10.7kbits/s speed=0.0567x elapsed=0:00:06.31    \nframe=   45 fps=6.6 q=29.0 size=       0KiB time=00:00:00.37 bitrate=  10.3kbits/s speed=0.0547x elapsed=0:00:06.84    \nframe=   48 fps=6.5 q=25.0 size=       0KiB time=00:00:00.40 bitrate=   9.6kbits/s speed=0.0541x elapsed=0:00:07.39    \nframe=   52 fps=6.5 q=29.0 size=       0KiB time=00:00:00.43 bitrate=   8.9kbits/s speed=0.0544x elapsed=0:00:07.96    \nframe=   55 fps=6.5 q=15.0 size=       0KiB time=00:00:00.45 bitrate=   8.4kbits/s speed=0.0539x elapsed=0:00:08.49    \nframe=   59 fps=6.5 q=15.0 size=       0KiB time=00:00:00.49 bitrate=   7.8kbits/s speed=0.0545x elapsed=0:00:09.02    \nframe=   61 fps=6.4 q=12.0 size=       0KiB time=00:00:00.50 bitrate=   7.6kbits/s speed=0.0532x elapsed=0:00:09.55    \nframe=   65 fps=6.5 q=24.0 size=       0KiB time=00:00:00.54 bitrate=   7.1kbits/s speed=0.0538x elapsed=0:00:10.07    \nframe=   69 fps=6.5 q=28.0 size=       0KiB time=00:00:00.57 bitrate=   6.7kbits/s speed=0.0543x elapsed=0:00:10.59    \nframe=   72 fps=6.5 q=15.0 size=       0KiB time=00:00:00.59 bitrate=   6.5kbits/s speed=0.0531x elapsed=0:00:11.13    \nframe=   75 fps=6.4 q=28.0 size=       0KiB time=00:00:00.62 bitrate=   6.2kbits/s speed=0.0535x elapsed=0:00:11.67    \nframe=   78 fps=6.4 q=31.0 size=       0KiB time=00:00:00.65 bitrate=   5.9kbits/s speed=0.0532x elapsed=0:00:12.22    \nframe=   82 fps=6.4 q=28.0 size=       0KiB time=00:00:00.68 bitrate=   5.6kbits/s speed=0.0536x elapsed=0:00:12.75    \nframe=   84 fps=6.3 q=28.0 size=       0KiB time=00:00:00.70 bitrate=   5.5kbits/s speed=0.0526x elapsed=0:00:13.30    \nframe=   88 fps=6.4 q=29.0 size=       0KiB time=00:00:00.73 bitrate=   5.2kbits/s speed=0.0531x elapsed=0:00:13.81    \nframe=   91 fps=6.4 q=12.0 size=       0KiB time=00:00:00.75 bitrate=   5.1kbits/s speed=0.0529x elapsed=0:00:14.32    \nframe=   95 fps=6.4 q=25.0 size=       0KiB time=00:00:00.79 bitrate=   4.9kbits/s speed=0.0533x elapsed=0:00:14.85    \nframe=   97 fps=6.3 q=30.0 size=       0KiB time=00:00:00.80 bitrate=   4.8kbits/s speed=0.0526x elapsed=0:00:15.37    \nframe=  101 fps=6.4 q=28.0 size=       0KiB time=00:00:00.84 bitrate=   4.6kbits/s speed=0.053x elapsed=0:00:15.89    \nframe=  105 fps=6.4 q=28.0 size=       0KiB time=00:00:00.87 bitrate=   4.4kbits/s speed=0.0533x elapsed=0:00:16.42    \nframe=  108 fps=6.4 q=31.0 size=       0KiB time=00:00:00.90 bitrate=   4.3kbits/s speed=0.0532x elapsed=0:00:16.93    \nframe=  111 fps=6.4 q=15.0 size=       0KiB time=00:00:00.92 bitrate=   4.2kbits/s speed=0.053x elapsed=0:00:17.45    \nframe=  115 fps=6.4 q=15.0 size=       0KiB time=00:00:00.95 bitrate=   4.0kbits/s speed=0.0533x elapsed=0:00:17.99    \nframe=  117 fps=6.3 q=11.0 size=       0KiB time=00:00:00.97 bitrate=   3.9kbits/s speed=0.0527x elapsed=0:00:18.51    \nframe=  121 fps=6.4 q=26.0 size=       0KiB time=00:00:01.00 bitrate=   3.8kbits/s speed=0.0529x elapsed=0:00:19.05    \nframe=  124 fps=6.3 q=15.0 size=       0KiB time=00:00:01.03 bitrate=   3.7kbits/s speed=0.0528x elapsed=0:00:19.58    \nframe=  127 fps=6.3 q=25.0 size=       0KiB time=00:00:01.05 bitrate=   3.6kbits/s speed=0.0526x elapsed=0:00:20.10    \nframe=  130 fps=6.3 q=29.0 size=    1280KiB time=00:00:01.08 bitrate=9679.2kbits/s speed=0.0525x elapsed=0:00:20.61    \nframe=  134 fps=6.3 q=31.0 size=    1280KiB time=00:00:01.11 bitrate=9390.2kbits/s speed=0.0527x elapsed=0:00:21.17    \nframe=  138 fps=6.4 q=30.0 size=    1280KiB time=00:00:01.15 bitrate=9118.1kbits/s speed=0.053x elapsed=0:00:21.67    \nframe=  142 fps=6.4 q=28.0 size=    1280KiB time=00:00:01.18 bitrate=8861.2kbits/s speed=0.0532x elapsed=0:00:22.22    \nframe=  145 fps=6.4 q=29.0 size=    1280KiB time=00:00:01.20 bitrate=8677.9kbits/s speed=0.0531x elapsed=0:00:22.75    \nframe=  147 fps=6.3 q=21.0 size=    1280KiB time=00:00:01.22 bitrate=8559.8kbits/s speed=0.0527x elapsed=0:00:23.26    \nframe=  151 fps=6.4 q=28.0 size=    1280KiB time=00:00:01.25 bitrate=8333.1kbits/s speed=0.0529x elapsed=0:00:23.77    \nframe=  154 fps=6.3 q=14.0 size=    1280KiB time=00:00:01.27 bitrate=8224.1kbits/s speed=0.0524x elapsed=0:00:24.31    \nframe=  157 fps=6.3 q=28.0 size=    1280KiB time=00:00:01.30 bitrate=8014.6kbits/s speed=0.0526x elapsed=0:00:24.85    \nframe=  158 fps=6.2 q=15.0 size=    1280KiB time=00:00:01.31 bitrate=7963.9kbits/s speed=0.0518x elapsed=0:00:25.39    \nframe=  160 fps=6.2 q=25.0 size=    1280KiB time=00:00:01.33 bitrate=7864.3kbits/s speed=0.0514x elapsed=0:00:25.94    \nframe=  164 fps=6.2 q=29.0 size=    1280KiB time=00:00:01.36 bitrate=7672.5kbits/s speed=0.0516x elapsed=0:00:26.47    \nframe=  166 fps=6.1 q=22.0 size=    1280KiB time=00:00:01.38 bitrate=7580.1kbits/s speed=0.0512x elapsed=0:00:26.99    \nframe=  170 fps=6.2 q=27.0 size=    1280KiB time=00:00:01.41 bitrate=7401.7kbits/s speed=0.0514x elapsed=0:00:27.53    \nframe=  173 fps=6.2 q=15.0 size=    1280KiB time=00:00:01.44 bitrate=7273.4kbits/s speed=0.0514x elapsed=0:00:28.05    \nframe=  174 fps=6.1 q=8.0 size=    1280KiB time=00:00:01.45 bitrate=7231.6kbits/s speed=0.0507x elapsed=0:00:28.59    \nframe=  177 fps=6.1 q=29.0 size=    1280KiB time=00:00:01.47 bitrate=7109.0kbits/s speed=0.0507x elapsed=0:00:29.10    \nframe=  179 fps=6.0 q=27.0 size=    1280KiB time=00:00:01.49 bitrate=7029.6kbits/s speed=0.0504x elapsed=0:00:29.62    \nframe=  183 fps=6.1 q=23.0 size=    1280KiB time=00:00:01.52 bitrate=6875.9kbits/s speed=0.0506x elapsed=0:00:30.14    \nframe=  187 fps=6.1 q=28.0 size=    1280KiB time=00:00:01.55 bitrate=6728.8kbits/s speed=0.0508x elapsed=0:00:30.69    \nframe=  188 fps=6.0 q=15.0 size=    1280KiB time=00:00:01.56 bitrate=6693.0kbits/s speed=0.0502x elapsed=0:00:31.22    \nframe=  190 fps=6.0 q=26.0 size=    1280KiB time=00:00:01.58 bitrate=6622.6kbits/s speed=0.0498x elapsed=0:00:31.79    \nframe=  194 fps=6.0 q=26.0 size=    1280KiB time=00:00:01.61 bitrate=6486.0kbits/s speed=0.05x elapsed=0:00:32.32    \nframe=  197 fps=6.0 q=15.0 size=    1280KiB time=00:00:01.64 bitrate=6387.3kbits/s speed=0.05x elapsed=0:00:32.85    \nframe=  200 fps=6.0 q=27.0 size=    1280KiB time=00:00:01.66 bitrate=6291.5kbits/s speed=0.0499x elapsed=0:00:33.37    \nframe=  203 fps=6.0 q=15.0 size=    1280KiB time=00:00:01.69 bitrate=6198.5kbits/s speed=0.0499x elapsed=0:00:33.89    \nframe=  205 fps=6.0 q=22.0 size=    1280KiB time=00:00:01.70 bitrate=6138.0kbits/s speed=0.0496x elapsed=0:00:34.43    \nframe=  208 fps=5.9 q=14.0 size=    1280KiB time=00:00:01.73 bitrate=6049.5kbits/s speed=0.0496x elapsed=0:00:34.96    \nframe=  211 fps=5.9 q=25.0 size=    1280KiB time=00:00:01.75 bitrate=5963.5kbits/s speed=0.0495x elapsed=0:00:35.50    \nframe=  215 fps=6.0 q=27.0 size=    1280KiB time=00:00:01.79 bitrate=5852.5kbits/s speed=0.0497x elapsed=0:00:36.05    \nframe=  218 fps=6.0 q=15.0 size=    1280KiB time=00:00:01.81 bitrate=5772.0kbits/s speed=0.0497x elapsed=0:00:36.58    \nframe=  219 fps=5.9 q=8.0 size=    1280KiB time=00:00:01.82 bitrate=5745.6kbits/s speed=0.0492x elapsed=0:00:37.11    \nframe=  222 fps=5.9 q=29.0 size=    1280KiB time=00:00:01.85 bitrate=5668.0kbits/s speed=0.0492x elapsed=0:00:37.63    \nframe=  226 fps=5.9 q=28.0 size=    1280KiB time=00:00:01.88 bitrate=5567.7kbits/s speed=0.0494x elapsed=0:00:38.15    \nframe=  228 fps=5.9 q=27.0 size=    1280KiB time=00:00:01.90 bitrate=5518.8kbits/s speed=0.0491x elapsed=0:00:38.68    \nframe=  232 fps=5.9 q=27.0 size=    1280KiB time=00:00:01.93 bitrate=5423.7kbits/s speed=0.0493x elapsed=0:00:39.20    \nframe=  233 fps=5.9 q=14.0 size=    1280KiB time=00:00:01.94 bitrate=5400.4kbits/s speed=0.0489x elapsed=0:00:39.73    \nframe=  236 fps=5.9 q=15.0 size=    1280KiB time=00:00:01.96 bitrate=5331.7kbits/s speed=0.0489x elapsed=0:00:40.24    \nframe=  239 fps=5.9 q=30.0 size=    1280KiB time=00:00:01.99 bitrate=5264.8kbits/s speed=0.0489x elapsed=0:00:40.76    \nframe=  243 fps=5.9 q=30.0 size=    1280KiB time=00:00:02.02 bitrate=5178.2kbits/s speed=0.049x elapsed=0:00:41.28    \nframe=  244 fps=5.8 q=15.0 size=    1280KiB time=00:00:02.03 bitrate=5156.9kbits/s speed=0.0486x elapsed=0:00:41.81    \nframe=  248 fps=5.9 q=30.0 size=    1280KiB time=00:00:02.06 bitrate=5073.8kbits/s speed=0.0488x elapsed=0:00:42.34    \nframe=  251 fps=5.9 q=15.0 size=    1280KiB time=00:00:02.09 bitrate=5013.1kbits/s speed=0.0488x elapsed=0:00:42.88    \nframe=  254 fps=5.8 q=30.0 size=    1280KiB time=00:00:02.11 bitrate=4953.9kbits/s speed=0.0487x elapsed=0:00:43.43    \nframe=  257 fps=5.8 q=8.0 size=    1280KiB time=00:00:02.14 bitrate=4896.1kbits/s speed=0.0487x elapsed=0:00:43.95    \nframe=  261 fps=5.9 q=15.0 size=    3584KiB time=00:00:02.17 bitrate=13498.9kbits/s speed=0.0489x elapsed=0:00:44.48    \nframe=  265 fps=5.9 q=15.0 size=    3584KiB time=00:00:02.20 bitrate=13295.2kbits/s speed=0.049x elapsed=0:00:45.02    \nframe=  270 fps=5.9 q=28.0 size=    3584KiB time=00:00:02.25 bitrate=13048.9kbits/s speed=0.0494x elapsed=0:00:45.55    \nframe=  271 fps=5.9 q=15.0 size=    3584KiB time=00:00:02.25 bitrate=13000.8kbits/s speed=0.049x elapsed=0:00:46.11    \nframe=  275 fps=5.9 q=25.0 size=    3584KiB time=00:00:02.29 bitrate=12811.7kbits/s speed=0.0491x elapsed=0:00:46.64    \nframe=  278 fps=5.9 q=15.0 size=    3584KiB time=00:00:02.31 bitrate=12673.4kbits/s speed=0.0491x elapsed=0:00:47.17    \nframe=  281 fps=5.9 q=26.0 size=    3584KiB time=00:00:02.34 bitrate=12538.1kbits/s speed=0.0491x elapsed=0:00:47.70    \nframe=  285 fps=5.9 q=24.0 size=    3584KiB time=00:00:02.37 bitrate=12362.2kbits/s speed=0.0492x elapsed=0:00:48.22    \nframe=  286 fps=5.9 q=14.0 size=    3584KiB time=00:00:02.38 bitrate=12318.9kbits/s speed=0.0489x elapsed=0:00:48.76    \nframe=  288 fps=5.8 q=27.0 size=    3584KiB time=00:00:02.40 bitrate=12233.4kbits/s speed=0.0487x elapsed=0:00:49.30    \nframe=  292 fps=5.9 q=25.0 size=    3584KiB time=00:00:02.43 bitrate=12065.8kbits/s speed=0.0488x elapsed=0:00:49.81    \nframe=  294 fps=5.8 q=26.0 size=    3584KiB time=00:00:02.45 bitrate=11983.7kbits/s speed=0.0487x elapsed=0:00:50.33    \nframe=  298 fps=5.9 q=27.0 size=    3584KiB time=00:00:02.48 bitrate=11822.9kbits/s speed=0.0488x elapsed=0:00:50.86    \nframe=  300 fps=5.8 q=28.0 size=    3584KiB time=00:00:02.50 bitrate=11744.1kbits/s speed=0.0486x elapsed=0:00:51.39    \nframe=  301 fps=5.8 q=15.0 size=    3584KiB time=00:00:02.50 bitrate=11705.0kbits/s speed=0.0483x elapsed=0:00:51.92    \nframe=  304 fps=5.8 q=14.0 size=    3584KiB time=00:00:02.53 bitrate=11589.5kbits/s speed=0.0483x elapsed=0:00:52.45    \nframe=  307 fps=5.8 q=27.0 size=    3584KiB time=00:00:02.55 bitrate=11476.3kbits/s speed=0.0483x elapsed=0:00:52.96    \nframe=  311 fps=5.8 q=27.0 size=    3584KiB time=00:00:02.59 bitrate=11328.7kbits/s speed=0.0484x elapsed=0:00:53.50    \nframe=  313 fps=5.8 q=27.0 size=    3584KiB time=00:00:02.60 bitrate=11256.3kbits/s speed=0.0482x elapsed=0:00:54.05    \nframe=  316 fps=5.8 q=14.0 size=    3584KiB time=00:00:02.63 bitrate=11149.4kbits/s speed=0.0482x elapsed=0:00:54.58    \nframe=  318 fps=5.8 q=26.0 size=    3584KiB time=00:00:02.65 bitrate=11079.3kbits/s speed=0.0481x elapsed=0:00:55.10    \nframe=  320 fps=5.8 q=28.0 size=    3584KiB time=00:00:02.66 bitrate=11010.0kbits/s speed=0.0479x elapsed=0:00:55.63    \nframe=  324 fps=5.8 q=26.0 size=    3584KiB time=00:00:02.70 bitrate=10874.1kbits/s speed=0.0481x elapsed=0:00:56.16    \nframe=  326 fps=5.7 q=25.0 size=    3584KiB time=00:00:02.71 bitrate=10807.4kbits/s speed=0.0479x elapsed=0:00:56.70    \nframe=  330 fps=5.8 q=26.0 size=    3584KiB time=00:00:02.75 bitrate=10676.4kbits/s speed=0.048x elapsed=0:00:57.25    \nframe=  331 fps=5.7 q=14.0 size=    3584KiB time=00:00:02.75 bitrate=10644.2kbits/s speed=0.0477x elapsed=0:00:57.77    \nframe=  333 fps=5.7 q=28.0 size=    3584KiB time=00:00:02.77 bitrate=10580.2kbits/s speed=0.0476x elapsed=0:00:58.29    \nframe=  337 fps=5.7 q=27.0 size=    3584KiB time=00:00:02.80 bitrate=10454.6kbits/s speed=0.0477x elapsed=0:00:58.82    \nframe=  339 fps=5.7 q=25.0 size=    3584KiB time=00:00:02.82 bitrate=10393.0kbits/s speed=0.0476x elapsed=0:00:59.34    \nframe=  341 fps=5.7 q=27.0 size=    3584KiB time=00:00:02.84 bitrate=10332.0kbits/s speed=0.0475x elapsed=0:00:59.87    \nframe=  345 fps=5.7 q=26.0 size=    3584KiB time=00:00:02.87 bitrate=10212.2kbits/s speed=0.0476x elapsed=0:01:00.39    \nframe=  346 fps=5.7 q=14.0 size=    3584KiB time=00:00:02.88 bitrate=10182.7kbits/s speed=0.0473x elapsed=0:01:00.92    \nframe=  348 fps=5.7 q=26.0 size=    3584KiB time=00:00:02.90 bitrate=10124.2kbits/s speed=0.0472x elapsed=0:01:01.45    \nframe=  352 fps=5.7 q=28.0 size=    3584KiB time=00:00:02.93 bitrate=10009.1kbits/s speed=0.0473x elapsed=0:01:01.99    \nframe=  354 fps=5.7 q=24.0 size=    3584KiB time=00:00:02.95 bitrate=9952.6kbits/s speed=0.0472x elapsed=0:01:02.51    \nframe=  358 fps=5.7 q=26.0 size=    3584KiB time=00:00:02.98 bitrate=9841.4kbits/s speed=0.0473x elapsed=0:01:03.02    \nframe=  361 fps=5.7 q=14.0 size=    3584KiB time=00:00:03.00 bitrate=9759.6kbits/s speed=0.0473x elapsed=0:01:03.54    \nframe=  361 fps=5.6 q=14.0 size=    3584KiB time=00:00:03.00 bitrate=9759.6kbits/s speed=0.047x elapsed=0:01:04.05    \nframe=  365 fps=5.6 q=30.0 size=    3584KiB time=00:00:03.04 bitrate=9652.6kbits/s speed=0.0471x elapsed=0:01:04.60    \nframe=  368 fps=5.7 q=14.0 size=    3584KiB time=00:00:03.06 bitrate=9574.0kbits/s speed=0.0471x elapsed=0:01:05.12    \nframe=  371 fps=5.7 q=25.0 size=    3584KiB time=00:00:03.09 bitrate=9496.5kbits/s speed=0.0471x elapsed=0:01:05.65    \nframe=  372 fps=5.6 q=14.0 size=    3584KiB time=00:00:03.10 bitrate=9471.0kbits/s speed=0.0468x elapsed=0:01:06.19    \nframe=  376 fps=5.6 q=30.0 size=    3584KiB time=00:00:03.13 bitrate=9370.3kbits/s speed=0.047x elapsed=0:01:06.71    \nframe=  378 fps=5.6 q=26.0 size=    3584KiB time=00:00:03.15 bitrate=9320.7kbits/s speed=0.0468x elapsed=0:01:07.24    \nframe=  382 fps=5.6 q=28.0 size=    3584KiB time=00:00:03.18 bitrate=9223.1kbits/s speed=0.047x elapsed=0:01:07.75    \nframe=  385 fps=5.6 q=8.0 size=    3584KiB time=00:00:03.20 bitrate=9175.0kbits/s speed=0.0469x elapsed=0:01:08.30    \nframe=  390 fps=5.7 q=29.0 size=    6144KiB time=00:00:03.25 bitrate=15486.7kbits/s speed=0.0472x elapsed=0:01:08.85    \nframe=  394 fps=5.7 q=30.0 size=    6144KiB time=00:00:03.28 bitrate=15329.4kbits/s speed=0.0473x elapsed=0:01:09.39    \nframe=  398 fps=5.7 q=30.0 size=    6144KiB time=00:00:03.31 bitrate=15175.4kbits/s speed=0.0474x elapsed=0:01:09.91    \nframe=  399 fps=5.7 q=15.0 size=    6144KiB time=00:00:03.32 bitrate=15137.3kbits/s speed=0.0472x elapsed=0:01:10.45    \nframe=  403 fps=5.7 q=27.0 size=    6144KiB time=00:00:03.35 bitrate=14987.1kbits/s speed=0.0473x elapsed=0:01:10.97    \nframe=  405 fps=5.7 q=27.0 size=    6144KiB time=00:00:03.37 bitrate=14913.1kbits/s speed=0.0472x elapsed=0:01:11.49    \nframe=  409 fps=5.7 q=23.0 size=    6144KiB time=00:00:03.40 bitrate=14767.2kbits/s speed=0.0473x elapsed=0:01:12.01    \nframe=  412 fps=5.7 q=15.0 size=    6144KiB time=00:00:03.43 bitrate=14659.7kbits/s speed=0.0473x elapsed=0:01:12.57    \nframe=  414 fps=5.7 q=14.0 size=    6144KiB time=00:00:03.45 bitrate=14588.9kbits/s speed=0.0472x elapsed=0:01:13.10    \nframe=  416 fps=5.6 q=28.0 size=    6144KiB time=00:00:03.46 bitrate=14518.7kbits/s speed=0.0471x elapsed=0:01:13.63    \nframe=  418 fps=5.6 q=28.0 size=    6144KiB time=00:00:03.48 bitrate=14449.3kbits/s speed=0.047x elapsed=0:01:14.16    \nframe=  422 fps=5.7 q=27.0 size=    6144KiB time=00:00:03.51 bitrate=14312.3kbits/s speed=0.0471x elapsed=0:01:14.67    \nframe=  425 fps=5.7 q=14.0 size=    6144KiB time=00:00:03.54 bitrate=14211.3kbits/s speed=0.0471x elapsed=0:01:15.21    \nframe=  428 fps=5.7 q=28.0 size=    6144KiB time=00:00:03.56 bitrate=14111.7kbits/s speed=0.0471x elapsed=0:01:15.72    \nframe=  429 fps=5.6 q=15.0 size=    6144KiB time=00:00:03.57 bitrate=14078.8kbits/s speed=0.0469x elapsed=0:01:16.27    \nframe=  433 fps=5.6 q=30.0 size=    6144KiB time=00:00:03.60 bitrate=13948.7kbits/s speed=0.047x elapsed=0:01:16.81    \nframe=  435 fps=5.6 q=25.0 size=    6144KiB time=00:00:03.62 bitrate=13884.6kbits/s speed=0.0469x elapsed=0:01:17.33    \nframe=  439 fps=5.6 q=28.0 size=    6144KiB time=00:00:03.65 bitrate=13758.1kbits/s speed=0.047x elapsed=0:01:17.89    \nframe=  441 fps=5.6 q=25.0 size=    6144KiB time=00:00:03.67 bitrate=13695.7kbits/s speed=0.0469x elapsed=0:01:18.41    \nframe=  444 fps=5.6 q=14.0 size=    6144KiB time=00:00:03.70 bitrate=13603.1kbits/s speed=0.0469x elapsed=0:01:18.94    \nframe=  446 fps=5.6 q=28.0 size=    6144KiB time=00:00:03.71 bitrate=13542.1kbits/s speed=0.0468x elapsed=0:01:19.47    \nframe=  449 fps=5.6 q=15.0 size=    6144KiB time=00:00:03.74 bitrate=13451.7kbits/s speed=0.0467x elapsed=0:01:20.03    \nframe=  452 fps=5.6 q=28.0 size=    6144KiB time=00:00:03.76 bitrate=13362.4kbits/s speed=0.0468x elapsed=0:01:20.56    \nframe=  456 fps=5.6 q=24.0 size=    6144KiB time=00:00:03.80 bitrate=13245.2kbits/s speed=0.0469x elapsed=0:01:21.08    \nframe=  458 fps=5.6 q=28.0 size=    6144KiB time=00:00:03.81 bitrate=13187.3kbits/s speed=0.0468x elapsed=0:01:21.63    \nframe=  459 fps=5.6 q=14.0 size=    6144KiB time=00:00:03.82 bitrate=13158.6kbits/s speed=0.0466x elapsed=0:01:22.16    \nframe=  463 fps=5.6 q=28.0 size=    6144KiB time=00:00:03.85 bitrate=13044.9kbits/s speed=0.0467x elapsed=0:01:22.67    \nframe=  466 fps=5.6 q=15.0 size=    6144KiB time=00:00:03.88 bitrate=12960.9kbits/s speed=0.0467x elapsed=0:01:23.20    \nframe=  469 fps=5.6 q=29.0 size=    6144KiB time=00:00:03.90 bitrate=12878.0kbits/s speed=0.0467x elapsed=0:01:23.72    \nframe=  473 fps=5.6 q=25.0 size=    6144KiB time=00:00:03.94 bitrate=12769.1kbits/s speed=0.0468x elapsed=0:01:24.25    \nframe=  474 fps=5.6 q=14.0 size=    6144KiB time=00:00:03.95 bitrate=12742.2kbits/s speed=0.0466x elapsed=0:01:24.78    \nframe=  476 fps=5.6 q=29.0 size=    6144KiB time=00:00:03.96 bitrate=12688.6kbits/s speed=0.0465x elapsed=0:01:25.29    \nframe=  480 fps=5.6 q=29.0 size=    6144KiB time=00:00:04.00 bitrate=12582.9kbits/s speed=0.0466x elapsed=0:01:25.81    \nframe=  484 fps=5.6 q=30.0 size=    6144KiB time=00:00:04.03 bitrate=12478.9kbits/s speed=0.0467x elapsed=0:01:26.32    \nframe=  487 fps=5.6 q=14.0 size=    6144KiB time=00:00:04.05 bitrate=12402.0kbits/s speed=0.0467x elapsed=0:01:26.86    \nframe=  489 fps=5.6 q=15.0 size=    6144KiB time=00:00:04.07 bitrate=12351.3kbits/s speed=0.0466x elapsed=0:01:27.39    \nframe=  491 fps=5.6 q=28.0 size=    6144KiB time=00:00:04.09 bitrate=12301.0kbits/s speed=0.0465x elapsed=0:01:27.91    \nframe=  495 fps=5.6 q=28.0 size=    6144KiB time=00:00:04.12 bitrate=12201.6kbits/s speed=0.0466x elapsed=0:01:28.46    \nframe=  498 fps=5.6 q=15.0 size=    6144KiB time=00:00:04.15 bitrate=12128.1kbits/s speed=0.0466x elapsed=0:01:28.99    \nframe=  500 fps=5.6 q=15.0 size=    6144KiB time=00:00:04.16 bitrate=12079.6kbits/s speed=0.0465x elapsed=0:01:29.51    \nframe=  502 fps=5.6 q=29.0 size=    6144KiB time=00:00:04.18 bitrate=12031.5kbits/s speed=0.0465x elapsed=0:01:30.04    \nframe=  506 fps=5.6 q=28.0 size=    6144KiB time=00:00:04.21 bitrate=11936.4kbits/s speed=0.0466x elapsed=0:01:30.55    \nframe=  510 fps=5.6 q=28.0 size=    6144KiB time=00:00:04.25 bitrate=11842.7kbits/s speed=0.0466x elapsed=0:01:31.11    \nframe=  512 fps=5.6 q=27.0 size=    6144KiB time=00:00:04.26 bitrate=11796.5kbits/s speed=0.0466x elapsed=0:01:31.62    \nframe=  516 fps=5.6 q=23.0 size=    8448KiB time=00:00:04.30 bitrate=16094.4kbits/s speed=0.0467x elapsed=0:01:32.13    \nframe=  519 fps=5.6 q=15.0 size=    8448KiB time=00:00:04.32 bitrate=16001.4kbits/s speed=0.0467x elapsed=0:01:32.67    \nframe=  524 fps=5.6 q=31.0 size=    8448KiB time=00:00:04.36 bitrate=15848.7kbits/s speed=0.0469x elapsed=0:01:33.20    \nframe=  527 fps=5.6 q=15.0 size=    8448KiB time=00:00:04.39 bitrate=15758.5kbits/s speed=0.0469x elapsed=0:01:33.71    \nframe=  529 fps=5.6 q=28.0 size=    8448KiB time=00:00:04.40 bitrate=15698.9kbits/s speed=0.0468x elapsed=0:01:34.25    \nframe=  533 fps=5.6 q=28.0 size=    8448KiB time=00:00:04.44 bitrate=15581.1kbits/s speed=0.0469x elapsed=0:01:34.77    \nframe=  536 fps=5.6 q=15.0 size=    8448KiB time=00:00:04.46 bitrate=15493.9kbits/s speed=0.0469x elapsed=0:01:35.30    \nframe=  539 fps=5.6 q=27.0 size=    8448KiB time=00:00:04.49 bitrate=15407.6kbits/s speed=0.0469x elapsed=0:01:35.80    \nframe=  542 fps=5.6 q=15.0 size=    8448KiB time=00:00:04.51 bitrate=15322.4kbits/s speed=0.0469x elapsed=0:01:36.32    \nframe=  544 fps=5.6 q=26.0 size=    8448KiB time=00:00:04.53 bitrate=15266.0kbits/s speed=0.0468x elapsed=0:01:36.85    \nframe=  548 fps=5.6 q=27.0 size=    8448KiB time=00:00:04.56 bitrate=15154.6kbits/s speed=0.0469x elapsed=0:01:37.39    \nframe=  550 fps=5.6 q=26.0 size=    8448KiB time=00:00:04.58 bitrate=15099.5kbits/s speed=0.0468x elapsed=0:01:37.94    \nframe=  554 fps=5.6 q=27.0 size=    8448KiB time=00:00:04.61 bitrate=14990.5kbits/s speed=0.0469x elapsed=0:01:38.52    \nframe=  556 fps=5.6 q=25.0 size=    8448KiB time=00:00:04.63 bitrate=14936.6kbits/s speed=0.0467x elapsed=0:01:39.12    \nframe=  557 fps=5.6 q=14.0 size=    8448KiB time=00:00:04.64 bitrate=14909.7kbits/s speed=0.0466x elapsed=0:01:39.63    \nframe=  561 fps=5.6 q=27.0 size=    8448KiB time=00:00:04.67 bitrate=14803.4kbits/s speed=0.0467x elapsed=0:01:40.17    \nframe=  564 fps=5.6 q=16.0 size=    8448KiB time=00:00:04.70 bitrate=14724.7kbits/s speed=0.0467x elapsed=0:01:40.72    \nframe=  567 fps=5.6 q=29.0 size=    8448KiB time=00:00:04.72 bitrate=14646.8kbits/s speed=0.0467x elapsed=0:01:41.24    \nframe=  571 fps=5.6 q=25.0 size=    8448KiB time=00:00:04.75 bitrate=14544.2kbits/s speed=0.0468x elapsed=0:01:41.77    \nframe=  572 fps=5.6 q=14.0 size=    8448KiB time=00:00:04.76 bitrate=14518.7kbits/s speed=0.0466x elapsed=0:01:42.30    \nframe=  574 fps=5.6 q=30.0 size=    8448KiB time=00:00:04.78 bitrate=14468.2kbits/s speed=0.0465x elapsed=0:01:42.83    \nframe=  576 fps=5.6 q=28.0 size=    8448KiB time=00:00:04.80 bitrate=14417.9kbits/s speed=0.0464x elapsed=0:01:43.36    \nframe=  576 fps=5.5 q=28.0 size=    8448KiB time=00:00:04.80 bitrate=14417.9kbits/s speed=0.0462x elapsed=0:01:43.89    \nframe=  576 fps=5.5 q=28.0 size=    8448KiB time=00:00:04.80 bitrate=14417.9kbits/s speed=0.046x elapsed=0:01:44.42    \nframe=  576 fps=5.5 q=28.0 size=    8448KiB time=00:00:04.80 bitrate=14417.9kbits/s speed=0.0457x elapsed=0:01:44.93    \nframe=  576 fps=5.5 q=28.0 size=    8448KiB time=00:00:04.80 bitrate=14417.9kbits/s speed=0.0455x elapsed=0:01:45.44    \nframe=  576 fps=5.4 q=28.0 size=    8448KiB time=00:00:04.80 bitrate=14417.9kbits/s speed=0.0453x elapsed=0:01:45.97    \nframe=  576 fps=5.4 q=28.0 size=    8448KiB time=00:00:04.80 bitrate=14417.9kbits/s speed=0.0451x elapsed=0:01:46.50    \n[out#0/webm @ 0000023276509b80] video:10317KiB audio:0KiB subtitle:0KiB other streams:0KiB global headers:0KiB muxing overhead: 0.046467%\nframe=  600 fps=5.6 q=15.0 Lsize=   10322KiB time=00:00:05.00 bitrate=16911.1kbits/s speed=0.0467x elapsed=0:01:47.03    \n",
  "seconds": 107.15266752243042,
  "probe_out": {}
}